<!--?xml version="1.0" standalone="no"?-->
              <svg id="sw-js-blob-svg" viewBox="0 0 100 100" xmlns="http://www.w3.org/2000/svg" version="1.1">
                    <defs> 
                        <linearGradient id="sw-gradient" x1="0" x2="1" y1="1" y2="0">
                            <stop id="stop1" stop-color="rgba(0, 242.043, 255, 1)" offset="0%"></stop>
                            <stop id="stop2" stop-color="rgba(164.987, 31, 251, 1)" offset="100%"></stop>
                        </linearGradient>
                    </defs>
                <path fill="none" d="M22.5,-36.1C27.9,-31.6,30.2,-23.2,28.8,-16.1C27.4,-9,22.4,-3.3,21.8,3.4C21.2,10,25,17.4,24.4,24.9C23.8,32.5,18.9,40,13.7,37.2C8.5,34.5,3,21.3,-5.1,18.5C-13.3,15.6,-24.2,23,-26.6,22C-28.9,21.1,-22.8,11.7,-22.8,4C-22.7,-3.7,-28.7,-9.8,-26.7,-11.4C-24.8,-13.1,-14.8,-10.4,-9.1,-14.7C-3.3,-19.1,-1.6,-30.5,3.5,-35.9C8.6,-41.3,17.1,-40.6,22.5,-36.1Z" width="100%" height="100%" transform="translate(50 50)" stroke-width="1" style="transition: all 0.3s ease 0s;" stroke="url(#sw-gradient)"></path>
              </svg>