<!--?xml version="1.0" standalone="no"?-->
              <svg id="sw-js-blob-svg" viewBox="0 0 100 100" xmlns="http://www.w3.org/2000/svg" version="1.1">
                    <defs> 
                        <linearGradient id="sw-gradient" x1="0" x2="1" y1="1" y2="0">
                            <stop id="stop1" stop-color="rgba(248, 117, 55, 1)" offset="0%"></stop>
                            <stop id="stop2" stop-color="rgba(251, 168, 31, 1)" offset="100%"></stop>
                        </linearGradient>
                    </defs>
                <path fill="none" d="M14,-23.3C16.9,-19.9,17.1,-13.9,22,-8.5C26.9,-3.1,36.4,1.8,35.5,4.8C34.5,7.8,23.1,8.9,16.4,11.3C9.8,13.7,8,17.3,5.4,17.8C2.8,18.3,-0.5,15.8,-6.3,16.4C-12,17,-20.1,20.7,-26,19.4C-31.9,18.2,-35.6,11.9,-33.2,6.8C-30.8,1.7,-22.2,-2.3,-19.1,-8.5C-16,-14.8,-18.3,-23.4,-16,-27.1C-13.7,-30.8,-6.9,-29.6,-0.7,-28.6C5.5,-27.5,11.1,-26.7,14,-23.3Z" width="100%" height="100%" transform="translate(50 50)" stroke-width="1" style="transition: all 0.3s ease 0s;" stroke="url(#sw-gradient)"></path>
              </svg>