<!--?xml version="1.0" standalone="no"?-->
              <svg id="sw-js-blob-svg" viewBox="0 0 100 100" xmlns="http://www.w3.org/2000/svg" version="1.1">
                    <defs> 
                        <linearGradient id="sw-gradient" x1="0" x2="1" y1="1" y2="0">
                            <stop id="stop1" stop-color="rgba(0, 242.043, 255, 1)" offset="0%"></stop>
                            <stop id="stop2" stop-color="rgba(164.987, 31, 251, 1)" offset="100%"></stop>
                        </linearGradient>
                    </defs>
                <path fill="url(#sw-gradient)" d="M24,-28.7C31.6,-22.3,38.4,-15.1,37.9,-8.1C37.5,-1.1,29.7,5.8,25,14.8C20.3,23.8,18.5,34.9,12.3,39.7C6.1,44.5,-4.5,43,-9.6,36.7C-14.7,30.3,-14.3,19.2,-13.5,12C-12.6,4.8,-11.3,1.5,-9.6,-0.6C-8,-2.8,-6,-3.8,-4.4,-11.2C-2.7,-18.7,-1.4,-32.4,3.4,-36.5C8.2,-40.6,16.5,-35.1,24,-28.7Z" width="100%" height="100%" transform="translate(50 50)" stroke-width="0" style="transition: all 0.3s ease 0s;" stroke="url(#sw-gradient)"></path>
              </svg>