<!--?xml version="1.0" standalone="no"?-->
              <svg id="sw-js-blob-svg" viewBox="0 0 100 100" xmlns="http://www.w3.org/2000/svg" version="1.1">
                    <defs> 
                        <linearGradient id="sw-gradient" x1="0" x2="1" y1="1" y2="0">
                            <stop id="stop1" stop-color="rgba(248, 117, 55, 1)" offset="0%"></stop>
                            <stop id="stop2" stop-color="rgba(251, 168, 31, 1)" offset="100%"></stop>
                        </linearGradient>
                    </defs>
                <path fill="none" d="M15.9,-22.4C23,-20.1,33,-19.9,38.7,-15.3C44.5,-10.8,45.9,-2,41.5,3.6C37,9.3,26.7,11.7,19.4,12.6C12.1,13.5,7.8,12.8,3.7,15.2C-0.4,17.5,-4.3,22.9,-8.8,24.2C-13.2,25.5,-18.2,22.8,-19.6,18.5C-21,14.2,-18.9,8.3,-18.9,3.2C-19,-1.9,-21.1,-6.3,-21.5,-11.6C-21.8,-16.8,-20.3,-23.1,-16.4,-26.9C-12.5,-30.7,-6.3,-32.2,-1,-30.7C4.3,-29.3,8.7,-24.8,15.9,-22.4Z" width="100%" height="100%" transform="translate(50 50)" stroke-width="1" style="transition: all 0.3s ease 0s;" stroke="url(#sw-gradient)"></path>
              </svg>