<!--?xml version="1.0" standalone="no"?-->
              <svg id="sw-js-blob-svg" viewBox="0 0 100 100" xmlns="http://www.w3.org/2000/svg" version="1.1">
                    <defs> 
                        <linearGradient id="sw-gradient" x1="0" x2="1" y1="1" y2="0">
                            <stop id="stop1" stop-color="rgba(0, 242.043, 255, 1)" offset="0%"></stop>
                            <stop id="stop2" stop-color="rgba(164.987, 31, 251, 1)" offset="100%"></stop>
                        </linearGradient>
                    </defs>
                <path fill="none" d="M18.7,-29.8C22.1,-26.9,21.1,-18.1,19.6,-11.8C18,-5.5,15.8,-1.8,15.1,2.1C14.3,5.9,15.2,9.9,14.2,14C13.2,18.1,10.5,22.3,6,26.4C1.5,30.5,-4.9,34.4,-7.7,31.2C-10.4,28.1,-9.6,17.8,-13,12.2C-16.3,6.6,-23.9,5.6,-28.5,1.5C-33.1,-2.5,-34.6,-9.5,-31.4,-13.4C-28.2,-17.3,-20.2,-18.1,-14.1,-19.7C-8.1,-21.3,-4.1,-23.8,1.8,-26.6C7.7,-29.4,15.3,-32.6,18.7,-29.8Z" width="100%" height="100%" transform="translate(50 50)" stroke-width="1" style="transition: all 0.3s ease 0s;" stroke="url(#sw-gradient)"></path>
              </svg>